<svg id="visual" viewBox="0 0 900 600" width="900" height="600" xmlns="http://www.w3.org/2000/svg" xmlns:xlink="http://www.w3.org/1999/xlink" version="1.1"><rect x="0" y="0" width="900" height="600" fill="#001220"></rect><path d="M0 389L21.5 389.5C43 390 86 391 128.8 386.2C171.7 381.3 214.3 370.7 257.2 379.7C300 388.7 343 417.3 385.8 427.2C428.7 437 471.3 428 514.2 417.8C557 407.7 600 396.3 642.8 387C685.7 377.7 728.3 370.3 771.2 370.3C814 370.3 857 377.7 878.5 381.3L900 385L900 601L878.5 601C857 601 814 601 771.2 601C728.3 601 685.7 601 642.8 601C600 601 557 601 514.2 601C471.3 601 428.7 601 385.8 601C343 601 300 601 257.2 601C214.3 601 171.7 601 128.8 601C86 601 43 601 21.5 601L0 601Z" fill="#fa7268"></path><path d="M0 399L21.5 399.2C43 399.3 86 399.7 128.8 401.2C171.7 402.7 214.3 405.3 257.2 408.7C300 412 343 416 385.8 422.5C428.7 429 471.3 438 514.2 446.8C557 455.7 600 464.3 642.8 469.8C685.7 475.3 728.3 477.7 771.2 476C814 474.3 857 468.7 878.5 465.8L900 463L900 601L878.5 601C857 601 814 601 771.2 601C728.3 601 685.7 601 642.8 601C600 601 557 601 514.2 601C471.3 601 428.7 601 385.8 601C343 601 300 601 257.2 601C214.3 601 171.7 601 128.8 601C86 601 43 601 21.5 601L0 601Z" fill="#ef5f67"></path><path d="M0 510L21.5 505.3C43 500.7 86 491.3 128.8 491.3C171.7 491.3 214.3 500.7 257.2 497.8C300 495 343 480 385.8 470.7C428.7 461.3 471.3 457.7 514.2 459.7C557 461.7 600 469.3 642.8 475C685.7 480.7 728.3 484.3 771.2 486C814 487.7 857 487.3 878.5 487.2L900 487L900 601L878.5 601C857 601 814 601 771.2 601C728.3 601 685.7 601 642.8 601C600 601 557 601 514.2 601C471.3 601 428.7 601 385.8 601C343 601 300 601 257.2 601C214.3 601 171.7 601 128.8 601C86 601 43 601 21.5 601L0 601Z" fill="#e34c67"></path><path d="M0 494L21.5 498.5C43 503 86 512 128.8 518.5C171.7 525 214.3 529 257.2 524.7C300 520.3 343 507.7 385.8 505.3C428.7 503 471.3 511 514.2 512C557 513 600 507 642.8 510.2C685.7 513.3 728.3 525.7 771.2 531.2C814 536.7 857 535.3 878.5 534.7L900 534L900 601L878.5 601C857 601 814 601 771.2 601C728.3 601 685.7 601 642.8 601C600 601 557 601 514.2 601C471.3 601 428.7 601 385.8 601C343 601 300 601 257.2 601C214.3 601 171.7 601 128.8 601C86 601 43 601 21.5 601L0 601Z" fill="#d53867"></path><path d="M0 559L21.5 554.3C43 549.7 86 540.3 128.8 540.8C171.7 541.3 214.3 551.7 257.2 552.5C300 553.3 343 544.7 385.8 545.3C428.7 546 471.3 556 514.2 558.2C557 560.3 600 554.7 642.8 551C685.7 547.3 728.3 545.7 771.2 543.8C814 542 857 540 878.5 539L900 538L900 601L878.5 601C857 601 814 601 771.2 601C728.3 601 685.7 601 642.8 601C600 601 557 601 514.2 601C471.3 601 428.7 601 385.8 601C343 601 300 601 257.2 601C214.3 601 171.7 601 128.8 601C86 601 43 601 21.5 601L0 601Z" fill="#c62368"></path></svg>